M48
; DRILL file KiCad 10.0.1 date 2026-04-28T22:01:05
; FORMAT={-:-/ absolute / inch / decimal}
; #@! TF.CreationDate,2026-04-28T22:01:05-07:00
; #@! TF.GenerationSoftware,Kicad,Pcbnew,10.0.1
; #@! TF.FileFunction,Plated,1,4,PTH
FMAT,2
INCH
; #@! TA.AperFunction,Plated,PTH,ViaDrill
T1C0.0118
; #@! TA.AperFunction,Plated,PTH,ComponentDrill
T2C0.0295
; #@! TA.AperFunction,Plated,PTH,ComponentDrill
T3C0.0315
; #@! TA.AperFunction,Plated,PTH,ComponentDrill
T4C0.0320
; #@! TA.AperFunction,Plated,PTH,ComponentDrill
T5C0.0394
; #@! TA.AperFunction,Plated,PTH,ComponentDrill
T6C0.0402
; #@! TA.AperFunction,Plated,PTH,ComponentDrill
T7C0.0433
; #@! TA.AperFunction,Plated,PTH,ComponentDrill
T8C0.0440
; #@! TA.AperFunction,Plated,PTH,ComponentDrill
T9C0.0591
; #@! TA.AperFunction,Plated,PTH,ComponentDrill
T10C0.0669
; #@! TA.AperFunction,Plated,PTH,ComponentDrill
T11C0.2130
%
G90
G05
T1
X3.3661Y-4.311
X3.3661Y-5.748
X3.4055Y-4.0551
X3.622Y-5.2165
X3.878Y-5.4921
X4.1929Y-4.7244
T2
X2.8134Y-5.2165
X2.8634Y-5.2165
X2.9134Y-5.2165
X3.2268Y-5.1181
X3.2768Y-5.1181
X3.3268Y-5.1181
T3
X2.5394Y-4.8
X2.5394Y-5.2
X2.5528Y-3.6614
X2.6709Y-3.1102
X2.7953Y-3.3465
X2.7953Y-3.4449
X2.874Y-4.8228
X2.874Y-4.9213
X2.889Y-3.8339
X2.889Y-4.1339
X2.9528Y-3.6614
X2.9626Y-4.3307
X2.989Y-3.8339
X2.989Y-4.1339
X3.0134Y-6.3189
X3.061Y-4.3307
X3.0709Y-3.1102
X3.089Y-3.8339
X3.089Y-4.1339
X3.0921Y-5.9646
X3.0921Y-6.063
X3.1433Y-3.6614
X3.1661Y-4.8622
X3.1858Y-5.374
X3.189Y-3.8339
X3.189Y-4.1339
X3.2646Y-3.1102
X3.3858Y-3.8091
X3.3858Y-3.9075
X3.4134Y-6.3189
X3.472Y-4.2201
X3.472Y-4.5201
X3.5433Y-3.6614
X3.5614Y-6.3189
X3.5661Y-4.8622
X3.572Y-4.2201
X3.572Y-4.5201
X3.5858Y-5.374
X3.6614Y-3.3268
X3.6614Y-3.4252
X3.6646Y-3.1102
X3.672Y-4.2201
X3.672Y-4.5201
X3.7205Y-4.9181
X3.7205Y-5.3181
X3.772Y-4.2201
X3.772Y-4.5201
X3.9173Y-4.7244
X3.9173Y-5.1244
X3.9614Y-6.3189
X3.9764Y-5.9862
X3.9764Y-6.0846
X4.1339Y-4.8197
X4.1339Y-5.2197
X4.2126Y-3.1102
X4.2594Y-3.7992
X4.2967Y-3.3094
X4.2967Y-3.4078
X4.3213Y-6.3209
X4.3579Y-3.7992
X4.4457Y-6.0059
X4.4457Y-6.1043
X4.485Y-5.1969
X4.6126Y-3.1102
X4.6531Y-3.7764
X4.6531Y-4.1764
X4.7213Y-4.4882
X4.7213Y-6.3209
X4.7638Y-3.1102
X4.885Y-5.1969
X4.915Y-6.3189
X5.1213Y-4.4882
X5.1638Y-3.1102
X5.1817Y-3.2877
X5.1817Y-3.3861
X5.2724Y-5.9646
X5.2724Y-6.063
X5.315Y-6.3189
X5.3543Y-3.7402
X5.3543Y-4.1402
X5.3543Y-4.2913
X5.3543Y-4.3898
X5.5315Y-3.189
X5.5709Y-6.1811
X5.6299Y-3.189
X5.6693Y-4.052
X5.6693Y-4.452
X5.6693Y-6.1811
X5.748Y-3.6614
X5.7677Y-5.7874
X5.8465Y-3.6614
X5.8661Y-5.7874
X6.1417Y-3.4976
X6.1417Y-3.8976
X6.1417Y-5.4693
X6.1417Y-5.8693
T4
X4.1413Y-4.0626
X4.1413Y-4.1626
X4.1413Y-4.2626
X4.1413Y-4.3626
X4.4413Y-4.0626
X4.4413Y-4.1626
X4.4413Y-4.2626
X4.4413Y-4.3626
X4.8575Y-3.9445
X4.8575Y-4.0445
X4.8575Y-4.1445
X4.8575Y-4.2445
X5.1575Y-3.9445
X5.1575Y-4.0445
X5.1575Y-4.1445
X5.1575Y-4.2445
T5
X5.748Y-4.7047
X5.748Y-5.0
T6
X2.4894Y-4.0945
X2.6772Y-3.8976
X3.0709Y-4.6063
X3.7402Y-5.7677
X3.937Y-3.2283
X3.9567Y-4.5079
X4.5276Y-5.8268
X4.6064Y-3.6408
X4.6221Y-4.3546
X4.9016Y-3.7795
X5.9449Y-4.0748
T7
X3.1071Y-3.4252
X3.2071Y-3.4252
X3.3071Y-3.4252
X3.4252Y-5.9862
X3.5252Y-5.9862
X3.6252Y-5.9862
X4.4024Y-4.7524
X4.4024Y-4.8425
X4.4024Y-4.9327
X4.4953Y-5.4217
X4.4953Y-5.5118
X4.4953Y-5.602
X4.6425Y-3.4055
X4.7425Y-3.4055
X4.7606Y-6.0059
X4.8425Y-3.4055
X4.8606Y-6.0059
X4.8819Y-4.7524
X4.8819Y-4.8425
X4.8819Y-4.9327
X4.9606Y-6.0059
X5.1252Y-5.4217
X5.1252Y-5.5118
X5.1252Y-5.602
X6.0953Y-4.8
X6.0953Y-5.0
T8
X5.2168Y-4.9606
X5.5118Y-4.9606
T9
X2.6453Y-4.3776
X3.8567Y-3.9945
X5.8661Y-5.3543
X6.0024Y-4.3488
T10
X2.5453Y-4.2776
X2.5453Y-4.4776
X2.7453Y-4.2776
X2.7453Y-4.4776
X3.7567Y-3.8945
X3.7567Y-4.0945
X3.9567Y-3.8945
X3.9567Y-4.0945
X5.7661Y-5.2543
X5.7661Y-5.4543
X5.9024Y-4.2488
X5.9024Y-4.4488
X5.9661Y-5.2543
X5.9661Y-5.4543
X6.1024Y-4.2488
X6.1024Y-4.4488
T11
X2.644Y-6.2059
X6.0236Y-3.2283
X6.0236Y-6.1811
M30
