%TF.GenerationSoftware,KiCad,Pcbnew,10.0.1*%
%TF.CreationDate,2026-04-28T22:01:05-07:00*%
%TF.ProjectId,ece137b_lab,65636531-3337-4625-9f6c-61622e6b6963,V2*%
%TF.SameCoordinates,Original*%
%TF.FileFunction,Legend,Bot*%
%TF.FilePolarity,Positive*%
%FSLAX46Y46*%
G04 Gerber Fmt 4.6, Leading zero omitted, Abs format (unit mm)*
G04 Created by KiCad (PCBNEW 10.0.1) date 2026-04-28 22:01:05*
%MOMM*%
%LPD*%
G01*
G04 APERTURE LIST*
G04 Aperture macros list*
%AMRoundRect*
0 Rectangle with rounded corners*
0 $1 Rounding radius*
0 $2 $3 $4 $5 $6 $7 $8 $9 X,Y pos of 4 corners*
0 Add a 4 corners polygon primitive as box body*
4,1,4,$2,$3,$4,$5,$6,$7,$8,$9,$2,$3,0*
0 Add four circle primitives for the rounded corners*
1,1,$1+$1,$2,$3*
1,1,$1+$1,$4,$5*
1,1,$1+$1,$6,$7*
1,1,$1+$1,$8,$9*
0 Add four rect primitives between the rounded corners*
20,1,$1+$1,$2,$3,$4,$5,0*
20,1,$1+$1,$4,$5,$6,$7,0*
20,1,$1+$1,$6,$7,$8,$9,0*
20,1,$1+$1,$8,$9,$2,$3,0*%
G04 Aperture macros list end*
%ADD10C,0.508000*%
%ADD11R,1.050000X1.500000*%
%ADD12O,1.050000X1.500000*%
%ADD13C,1.600000*%
%ADD14O,1.800000X1.717500*%
%ADD15R,1.800000X1.717500*%
%ADD16C,1.734000*%
%ADD17R,1.905000X2.000000*%
%ADD18O,1.905000X2.000000*%
%ADD19C,5.918200*%
%ADD20C,2.454000*%
%ADD21C,2.754000*%
%ADD22C,1.625600*%
%ADD23R,1.524000X1.524000*%
%ADD24C,1.524000*%
%ADD25R,2.000000X2.000000*%
%ADD26C,2.000000*%
%ADD27RoundRect,0.250000X0.550000X-0.550000X0.550000X0.550000X-0.550000X0.550000X-0.550000X-0.550000X0*%
%ADD28RoundRect,0.250000X-0.550000X0.550000X-0.550000X-0.550000X0.550000X-0.550000X0.550000X0.550000X0*%
G04 APERTURE END LIST*
%TO.C,J2*%
D10*
X158105400Y-157000000D02*
G75*
G02*
X157343400Y-157000000I-381000J0D01*
G01*
X157343400Y-157000000D02*
G75*
G02*
X158105400Y-157000000I381000J0D01*
G01*
%TO.C,J1*%
X158105400Y-82000000D02*
G75*
G02*
X157343400Y-82000000I-381000J0D01*
G01*
X157343400Y-82000000D02*
G75*
G02*
X158105400Y-82000000I381000J0D01*
G01*
%TO.C,J3*%
X72262000Y-157630000D02*
G75*
G02*
X71500000Y-157630000I-381000J0D01*
G01*
X71500000Y-157630000D02*
G75*
G02*
X72262000Y-157630000I381000J0D01*
G01*
%TD*%
%LPC*%
D11*
%TO.C,Q9*%
X81960000Y-130000000D03*
D12*
X83230000Y-130000000D03*
X84500000Y-130000000D03*
%TD*%
D11*
%TO.C,Q10*%
X74000000Y-132500000D03*
D12*
X72730000Y-132500000D03*
X71460000Y-132500000D03*
%TD*%
D13*
%TO.C,R15*%
X80420000Y-123500000D03*
X90580000Y-123500000D03*
%TD*%
%TO.C,R16*%
X80920000Y-136500000D03*
X91080000Y-136500000D03*
%TD*%
%TO.C,C10*%
X73000000Y-125000000D03*
X73000000Y-122500000D03*
%TD*%
%TO.C,R14*%
X64500000Y-121920000D03*
X64500000Y-132080000D03*
%TD*%
D14*
%TO.C,Q8*%
X130180000Y-140000000D03*
D15*
X130180000Y-137710000D03*
D14*
X130180000Y-142290000D03*
%TD*%
%TO.C,Q7*%
X124000000Y-123000000D03*
D15*
X124000000Y-125290000D03*
D14*
X124000000Y-120710000D03*
%TD*%
%TO.C,Q6*%
X114180000Y-140000000D03*
D15*
X114180000Y-137710000D03*
D14*
X114180000Y-142290000D03*
%TD*%
%TO.C,Q5*%
X111820000Y-123000000D03*
D15*
X111820000Y-125290000D03*
D14*
X111820000Y-120710000D03*
%TD*%
D16*
%TO.C,TP7*%
X151000000Y-103500000D03*
%TD*%
D17*
%TO.C,U5*%
X92080000Y-152050000D03*
D18*
X89540000Y-152050000D03*
X87000000Y-152050000D03*
%TD*%
D16*
%TO.C,TP3*%
X95000000Y-146500000D03*
%TD*%
%TO.C,TP1*%
X63229863Y-104000000D03*
%TD*%
D19*
%TO.C,J2*%
X153000000Y-157000000D03*
%TD*%
D16*
%TO.C,TP9*%
X117400333Y-110607041D03*
%TD*%
D13*
%TO.C,C8*%
X141500000Y-157000000D03*
X144000000Y-157000000D03*
%TD*%
%TO.C,R8*%
X136000000Y-105160000D03*
X136000000Y-95000000D03*
%TD*%
%TO.C,R3*%
X99500000Y-120000000D03*
X99500000Y-130160000D03*
%TD*%
%TO.C,R2*%
X105000000Y-122420000D03*
X105000000Y-132580000D03*
%TD*%
D20*
%TO.C,J4*%
X97960000Y-101460000D03*
D21*
X95420000Y-98920000D03*
X100500000Y-98920000D03*
X95420000Y-104000000D03*
X100500000Y-104000000D03*
%TD*%
D22*
%TO.C,L1*%
X132507000Y-126000000D03*
X140000000Y-126000000D03*
%TD*%
D13*
%TO.C,C20*%
X93000000Y-84500000D03*
X93000000Y-87000000D03*
%TD*%
D20*
%TO.C,J7*%
X152460000Y-110460000D03*
D21*
X149920000Y-107920000D03*
X155000000Y-107920000D03*
X149920000Y-113000000D03*
X155000000Y-113000000D03*
%TD*%
D13*
%TO.C,R27*%
X93080000Y-79000000D03*
X82920000Y-79000000D03*
%TD*%
%TO.C,C7*%
X146000000Y-93000000D03*
X148500000Y-93000000D03*
%TD*%
%TO.C,C3*%
X136000000Y-109000000D03*
X136000000Y-111500000D03*
%TD*%
%TO.C,R21*%
X86700000Y-160500000D03*
X76540000Y-160500000D03*
%TD*%
%TO.C,C18*%
X131615208Y-83507372D03*
X131615208Y-86007372D03*
%TD*%
D16*
%TO.C,TP8*%
X78000000Y-117000000D03*
%TD*%
D13*
%TO.C,C15*%
X78540000Y-154000000D03*
X78540000Y-151500000D03*
%TD*%
%TO.C,R12*%
X156000000Y-149080000D03*
X156000000Y-138920000D03*
%TD*%
%TO.C,R11*%
X75000000Y-93000000D03*
X64840000Y-93000000D03*
%TD*%
D19*
%TO.C,J1*%
X153000000Y-82000000D03*
%TD*%
D13*
%TO.C,C14*%
X101000000Y-154550000D03*
X101000000Y-152050000D03*
%TD*%
D16*
%TO.C,TP6*%
X100000000Y-82000000D03*
%TD*%
%TO.C,TP4*%
X115000000Y-148000000D03*
%TD*%
D13*
%TO.C,R25*%
X131160000Y-79000000D03*
X121000000Y-79000000D03*
%TD*%
%TO.C,R22*%
X124840000Y-160500000D03*
X135000000Y-160500000D03*
%TD*%
%TO.C,R9*%
X144000000Y-102920000D03*
X144000000Y-113080000D03*
%TD*%
D23*
%TO.C,U9*%
X112810000Y-110810000D03*
D24*
X112810000Y-108270000D03*
X112810000Y-105730000D03*
X112810000Y-103190000D03*
X105190000Y-103190000D03*
X105190000Y-105730000D03*
X105190000Y-108270000D03*
X105190000Y-110810000D03*
%TD*%
D13*
%TO.C,R24*%
X117160000Y-79000000D03*
X107000000Y-79000000D03*
%TD*%
%TO.C,R13*%
X156000000Y-88840000D03*
X156000000Y-99000000D03*
%TD*%
%TO.C,R26*%
X78000000Y-79000000D03*
X67840000Y-79000000D03*
%TD*%
D16*
%TO.C,TP5*%
X117003792Y-92475605D03*
%TD*%
D13*
%TO.C,C17*%
X112920000Y-152550000D03*
X112920000Y-155050000D03*
%TD*%
D20*
%TO.C,J5*%
X67190000Y-111190000D03*
D21*
X64650000Y-108650000D03*
X69730000Y-108650000D03*
X64650000Y-113730000D03*
X69730000Y-113730000D03*
%TD*%
D16*
%TO.C,TP11*%
X124500000Y-96000000D03*
%TD*%
D13*
%TO.C,C6*%
X140500000Y-81000000D03*
X143000000Y-81000000D03*
%TD*%
%TO.C,R6*%
X118190000Y-106080000D03*
X118190000Y-95920000D03*
%TD*%
%TO.C,R4*%
X113920000Y-132000000D03*
X124080000Y-132000000D03*
%TD*%
%TO.C,R23*%
X119920000Y-160550000D03*
X109760000Y-160550000D03*
%TD*%
%TO.C,R10*%
X90000000Y-93000000D03*
X79840000Y-93000000D03*
%TD*%
D25*
%TO.C,R5*%
X154820000Y-127000000D03*
D26*
X154820000Y-121920000D03*
%TD*%
D27*
%TO.C,U4*%
X73380000Y-105000000D03*
D13*
X75920000Y-105000000D03*
X78460000Y-105000000D03*
X81000000Y-105000000D03*
X81000000Y-97380000D03*
X78460000Y-97380000D03*
X75920000Y-97380000D03*
X73380000Y-97380000D03*
%TD*%
D17*
%TO.C,U6*%
X126000000Y-152550000D03*
D18*
X123460000Y-152550000D03*
X120920000Y-152550000D03*
%TD*%
D13*
%TO.C,C2*%
X108190000Y-96500000D03*
X110690000Y-96500000D03*
%TD*%
D26*
%TO.C,C1*%
X146000000Y-127000000D03*
X146000000Y-119500000D03*
%TD*%
D17*
%TO.C,U7*%
X117920000Y-86500000D03*
D18*
X120460000Y-86500000D03*
X123000000Y-86500000D03*
%TD*%
D16*
%TO.C,TP2*%
X100500000Y-114500000D03*
%TD*%
D13*
%TO.C,C9*%
X146500000Y-147000000D03*
X149000000Y-147000000D03*
%TD*%
%TO.C,R1*%
X94500000Y-124920000D03*
X94500000Y-135080000D03*
%TD*%
D28*
%TO.C,U1*%
X95810000Y-107190000D03*
D13*
X93270000Y-107190000D03*
X90730000Y-107190000D03*
X88190000Y-107190000D03*
X88190000Y-114810000D03*
X90730000Y-114810000D03*
X93270000Y-114810000D03*
X95810000Y-114810000D03*
%TD*%
%TO.C,C4*%
X86000000Y-99250000D03*
X86000000Y-96750000D03*
%TD*%
D17*
%TO.C,U8*%
X78920000Y-87000000D03*
D18*
X81460000Y-87000000D03*
X84000000Y-87000000D03*
%TD*%
D13*
%TO.C,C5*%
X75250000Y-110000000D03*
X77750000Y-110000000D03*
%TD*%
%TO.C,R7*%
X130080000Y-114000000D03*
X119920000Y-114000000D03*
%TD*%
%TO.C,C19*%
X109135021Y-84058676D03*
X109135021Y-86558676D03*
%TD*%
%TO.C,R20*%
X90460000Y-160500000D03*
X100620000Y-160500000D03*
%TD*%
D20*
%TO.C,J6*%
X149000000Y-136000000D03*
D21*
X146460000Y-133460000D03*
X151540000Y-133460000D03*
X146460000Y-138540000D03*
X151540000Y-138540000D03*
%TD*%
D13*
%TO.C,C21*%
X71000000Y-85000000D03*
X71000000Y-87500000D03*
%TD*%
D16*
%TO.C,TP10*%
X68000000Y-99000000D03*
%TD*%
D19*
%TO.C,J3*%
X67156600Y-157630000D03*
%TD*%
D23*
%TO.C,U10*%
X131000000Y-107810000D03*
D24*
X131000000Y-105270000D03*
X131000000Y-102730000D03*
X131000000Y-100190000D03*
X123380000Y-100190000D03*
X123380000Y-102730000D03*
X123380000Y-105270000D03*
X123380000Y-107810000D03*
%TD*%
D13*
%TO.C,C16*%
X133920000Y-151500000D03*
X133920000Y-154000000D03*
%TD*%
%LPD*%
M02*
