%TF.GenerationSoftware,KiCad,Pcbnew,10.0.1*%
%TF.CreationDate,2026-04-28T22:01:05-07:00*%
%TF.ProjectId,ece137b_lab,65636531-3337-4625-9f6c-61622e6b6963,V2*%
%TF.SameCoordinates,Original*%
%TF.FileFunction,Copper,L4,Bot*%
%TF.FilePolarity,Positive*%
%FSLAX46Y46*%
G04 Gerber Fmt 4.6, Leading zero omitted, Abs format (unit mm)*
G04 Created by KiCad (PCBNEW 10.0.1) date 2026-04-28 22:01:05*
%MOMM*%
%LPD*%
G01*
G04 APERTURE LIST*
G04 Aperture macros list*
%AMRoundRect*
0 Rectangle with rounded corners*
0 $1 Rounding radius*
0 $2 $3 $4 $5 $6 $7 $8 $9 X,Y pos of 4 corners*
0 Add a 4 corners polygon primitive as box body*
4,1,4,$2,$3,$4,$5,$6,$7,$8,$9,$2,$3,0*
0 Add four circle primitives for the rounded corners*
1,1,$1+$1,$2,$3*
1,1,$1+$1,$4,$5*
1,1,$1+$1,$6,$7*
1,1,$1+$1,$8,$9*
0 Add four rect primitives between the rounded corners*
20,1,$1+$1,$2,$3,$4,$5,0*
20,1,$1+$1,$4,$5,$6,$7,0*
20,1,$1+$1,$6,$7,$8,$9,0*
20,1,$1+$1,$8,$9,$2,$3,0*%
G04 Aperture macros list end*
%TA.AperFunction,ComponentPad*%
%ADD10R,1.050000X1.500000*%
%TD*%
%TA.AperFunction,ComponentPad*%
%ADD11O,1.050000X1.500000*%
%TD*%
%TA.AperFunction,ComponentPad*%
%ADD12C,1.600000*%
%TD*%
%TA.AperFunction,ComponentPad*%
%ADD13O,1.800000X1.717500*%
%TD*%
%TA.AperFunction,ComponentPad*%
%ADD14R,1.800000X1.717500*%
%TD*%
%TA.AperFunction,ComponentPad*%
%ADD15C,1.530000*%
%TD*%
%TA.AperFunction,ComponentPad*%
%ADD16R,1.905000X2.000000*%
%TD*%
%TA.AperFunction,ComponentPad*%
%ADD17O,1.905000X2.000000*%
%TD*%
%TA.AperFunction,ComponentPad*%
%ADD18C,5.918200*%
%TD*%
%TA.AperFunction,ComponentPad*%
%ADD19C,2.250000*%
%TD*%
%TA.AperFunction,ComponentPad*%
%ADD20C,2.550000*%
%TD*%
%TA.AperFunction,ComponentPad*%
%ADD21C,1.625600*%
%TD*%
%TA.AperFunction,ComponentPad*%
%ADD22R,1.524000X1.524000*%
%TD*%
%TA.AperFunction,ComponentPad*%
%ADD23C,1.524000*%
%TD*%
%TA.AperFunction,ComponentPad*%
%ADD24R,2.000000X2.000000*%
%TD*%
%TA.AperFunction,ComponentPad*%
%ADD25C,2.000000*%
%TD*%
%TA.AperFunction,ComponentPad*%
%ADD26RoundRect,0.250000X0.550000X-0.550000X0.550000X0.550000X-0.550000X0.550000X-0.550000X-0.550000X0*%
%TD*%
%TA.AperFunction,ComponentPad*%
%ADD27RoundRect,0.250000X-0.550000X0.550000X-0.550000X-0.550000X0.550000X-0.550000X0.550000X0.550000X0*%
%TD*%
%TA.AperFunction,ViaPad*%
%ADD28C,0.600000*%
%TD*%
%TA.AperFunction,ViaPad*%
%ADD29C,2.000000*%
%TD*%
%TA.AperFunction,ViaPad*%
%ADD30C,0.800000*%
%TD*%
%TA.AperFunction,Conductor*%
%ADD31C,0.500000*%
%TD*%
%TA.AperFunction,Conductor*%
%ADD32C,1.000000*%
%TD*%
%TA.AperFunction,Conductor*%
%ADD33C,2.000000*%
%TD*%
%TA.AperFunction,Conductor*%
%ADD34C,1.500000*%
%TD*%
G04 APERTURE END LIST*
D10*
%TO.P,Q9,1,E_1*%
%TO.N,Net-(Q10-E)*%
X81960000Y-130000000D03*
D11*
%TO.P,Q9,2,B_2*%
%TO.N,Net-(Q10-B)*%
X83230000Y-130000000D03*
%TO.P,Q9,3,C_3*%
%TO.N,Net-(Q9-C)*%
X84500000Y-130000000D03*
%TD*%
D10*
%TO.P,Q10,1,E_1*%
%TO.N,Net-(Q10-E)*%
X74000000Y-132500000D03*
D11*
%TO.P,Q10,2,B_2*%
%TO.N,Net-(Q10-B)*%
X72730000Y-132500000D03*
%TO.P,Q10,3,C_3*%
%TO.N,GND*%
X71460000Y-132500000D03*
%TD*%
D12*
%TO.P,R15,1*%
%TO.N,Net-(Q9-C)*%
X80420000Y-123500000D03*
%TO.P,R15,2*%
%TO.N,+5V*%
X90580000Y-123500000D03*
%TD*%
%TO.P,R16,1*%
%TO.N,Net-(Q10-E)*%
X80920000Y-136500000D03*
%TO.P,R16,2*%
%TO.N,Net-(Q14-G)*%
X91080000Y-136500000D03*
%TD*%
%TO.P,C10,1*%
%TO.N,Net-(Q10-B)*%
X73000000Y-125000000D03*
%TO.P,C10,2*%
%TO.N,Net-(JP7-A)*%
X73000000Y-122500000D03*
%TD*%
%TO.P,R14,1*%
%TO.N,Net-(JP7-A)*%
X64500000Y-121920000D03*
%TO.P,R14,2*%
%TO.N,Net-(Q10-B)*%
X64500000Y-132080000D03*
%TD*%
D13*
%TO.P,Q8,1,D_1*%
%TO.N,/V_sw*%
X130180000Y-140000000D03*
D14*
%TO.P,Q8,2,G_2*%
%TO.N,Net-(Q6-D)*%
X130180000Y-137710000D03*
D13*
%TO.P,Q8,3,S_3*%
%TO.N,-10V*%
X130180000Y-142290000D03*
%TD*%
%TO.P,Q7,1,D_1*%
%TO.N,/V_sw*%
X124000000Y-123000000D03*
D14*
%TO.P,Q7,2,G_2*%
%TO.N,Net-(Q5-D)*%
X124000000Y-125290000D03*
D13*
%TO.P,Q7,3,S_3*%
%TO.N,+10V*%
X124000000Y-120710000D03*
%TD*%
%TO.P,Q6,1,D_1*%
%TO.N,Net-(Q6-D)*%
X114180000Y-140000000D03*
D14*
%TO.P,Q6,2,G_2*%
%TO.N,Net-(Q13-D)*%
X114180000Y-137710000D03*
D13*
%TO.P,Q6,3,S_3*%
%TO.N,-10V*%
X114180000Y-142290000D03*
%TD*%
%TO.P,Q5,1,D_1*%
%TO.N,Net-(Q5-D)*%
X111820000Y-123000000D03*
D14*
%TO.P,Q5,2,G_2*%
%TO.N,Net-(Q15-D)*%
X111820000Y-125290000D03*
D13*
%TO.P,Q5,3,S_3*%
%TO.N,+10V*%
X111820000Y-120710000D03*
%TD*%
D15*
%TO.P,TP7,TP*%
%TO.N,/V_in*%
X151000000Y-103500000D03*
%TD*%
D16*
%TO.P,U5,1,ADJ_1*%
%TO.N,Net-(U5-ADJ)*%
X92080000Y-152050000D03*
D17*
%TO.P,U5,2,VI_2*%
%TO.N,-10V*%
X89540000Y-152050000D03*
%TO.P,U5,3,VO_3*%
%TO.N,Net-(JP3-B)*%
X87000000Y-152050000D03*
%TD*%
D15*
%TO.P,TP3,TP*%
%TO.N,-2V5*%
X95000000Y-146500000D03*
%TD*%
%TO.P,TP1,TP*%
%TO.N,Net-(JP1-B)*%
X63229863Y-104000000D03*
%TD*%
D18*
%TO.P,J2,1,1_1*%
%TO.N,-10V*%
X153000000Y-157000000D03*
%TD*%
D15*
%TO.P,TP9,TP*%
%TO.N,Net-(U9-+)*%
X117400333Y-110607041D03*
%TD*%
D12*
%TO.P,C8,1*%
%TO.N,GND*%
X141500000Y-157000000D03*
%TO.P,C8,2*%
%TO.N,-10V*%
X144000000Y-157000000D03*
%TD*%
%TO.P,R8,1*%
%TO.N,Net-(U10--)*%
X136000000Y-105160000D03*
%TO.P,R8,2*%
%TO.N,Net-(JP8-A)*%
X136000000Y-95000000D03*
%TD*%
%TO.P,R3,1*%
%TO.N,+10V*%
X99500000Y-120000000D03*
%TO.P,R3,2*%
%TO.N,Net-(Q11-D)*%
X99500000Y-130160000D03*
%TD*%
%TO.P,R2,1*%
%TO.N,Net-(Q15-D)*%
X105000000Y-122420000D03*
%TO.P,R2,2*%
%TO.N,Net-(Q13-D)*%
X105000000Y-132580000D03*
%TD*%
D19*
%TO.P,J4,1*%
%TO.N,Net-(JP2-A)*%
X97960000Y-101460000D03*
D20*
%TO.P,J4,G1*%
%TO.N,GND*%
X95420000Y-98920000D03*
%TO.P,J4,G2*%
X100500000Y-98920000D03*
%TO.P,J4,G3*%
X95420000Y-104000000D03*
%TO.P,J4,G4*%
X100500000Y-104000000D03*
%TD*%
D21*
%TO.P,L1,1,1_1*%
%TO.N,/V_sw*%
X132507000Y-126000000D03*
%TO.P,L1,2,2_2*%
%TO.N,Net-(C1-Pad1)*%
X140000000Y-126000000D03*
%TD*%
D12*
%TO.P,C20,1*%
%TO.N,GND*%
X93000000Y-84500000D03*
%TO.P,C20,2*%
%TO.N,+10V*%
X93000000Y-87000000D03*
%TD*%
D19*
%TO.P,J7,1*%
%TO.N,/V_in*%
X152460000Y-110460000D03*
D20*
%TO.P,J7,G1*%
%TO.N,GND*%
X149920000Y-107920000D03*
%TO.P,J7,G2*%
X155000000Y-107920000D03*
%TO.P,J7,G3*%
X149920000Y-113000000D03*
%TO.P,J7,G4*%
X155000000Y-113000000D03*
%TD*%
D12*
%TO.P,R27,1*%
%TO.N,+5V*%
X93080000Y-79000000D03*
%TO.P,R27,2*%
%TO.N,Net-(U8-ADJ)*%
X82920000Y-79000000D03*
%TD*%
%TO.P,C7,1*%
%TO.N,GND*%
X146000000Y-93000000D03*
%TO.P,C7,2*%
%TO.N,Net-(C7-Pad2)*%
X148500000Y-93000000D03*
%TD*%
%TO.P,C3,1*%
%TO.N,Net-(U10--)*%
X136000000Y-109000000D03*
%TO.P,C3,2*%
%TO.N,Net-(C3-Pad2)*%
X136000000Y-111500000D03*
%TD*%
%TO.P,R21,1*%
%TO.N,Net-(U5-ADJ)*%
X86700000Y-160500000D03*
%TO.P,R21,2*%
%TO.N,Net-(JP3-B)*%
X76540000Y-160500000D03*
%TD*%
%TO.P,C18,1*%
%TO.N,GND*%
X131615208Y-83507372D03*
%TO.P,C18,2*%
%TO.N,+10V*%
X131615208Y-86007372D03*
%TD*%
D15*
%TO.P,TP8,TP*%
%TO.N,Net-(JP7-A)*%
X78000000Y-117000000D03*
%TD*%
D12*
%TO.P,C15,1*%
%TO.N,Net-(JP3-B)*%
X78540000Y-154000000D03*
%TO.P,C15,2*%
%TO.N,GND*%
X78540000Y-151500000D03*
%TD*%
%TO.P,R12,1*%
%TO.N,-10V*%
X156000000Y-149080000D03*
%TO.P,R12,2*%
%TO.N,Net-(C9-Pad2)*%
X156000000Y-138920000D03*
%TD*%
%TO.P,R11,1*%
%TO.N,/disch*%
X75000000Y-93000000D03*
%TO.P,R11,2*%
%TO.N,/thres*%
X64840000Y-93000000D03*
%TD*%
D18*
%TO.P,J1,1,1_1*%
%TO.N,+10V*%
X153000000Y-82000000D03*
%TD*%
D12*
%TO.P,C14,1*%
%TO.N,-10V*%
X101000000Y-154550000D03*
%TO.P,C14,2*%
%TO.N,GND*%
X101000000Y-152050000D03*
%TD*%
D15*
%TO.P,TP6,TP*%
%TO.N,+5V*%
X100000000Y-82000000D03*
%TD*%
%TO.P,TP4,TP*%
%TO.N,-5V*%
X115000000Y-148000000D03*
%TD*%
D12*
%TO.P,R25,1*%
%TO.N,Net-(JP5-B)*%
X131160000Y-79000000D03*
%TO.P,R25,2*%
%TO.N,Net-(U7-ADJ)*%
X121000000Y-79000000D03*
%TD*%
%TO.P,R22,1*%
%TO.N,Net-(U6-ADJ)*%
X124840000Y-160500000D03*
%TO.P,R22,2*%
%TO.N,GND*%
X135000000Y-160500000D03*
%TD*%
%TO.P,R9,1*%
%TO.N,/V_in*%
X144000000Y-102920000D03*
%TO.P,R9,2*%
%TO.N,Net-(U10--)*%
X144000000Y-113080000D03*
%TD*%
D22*
%TO.P,U9,1,BAL1_1*%
%TO.N,unconnected-(U9-BAL1-Pad1)*%
X112810000Y-110810000D03*
D23*
%TO.P,U9,2,-_2*%
%TO.N,Net-(U9--)*%
X112810000Y-108270000D03*
%TO.P,U9,3,+_3*%
%TO.N,Net-(U9-+)*%
X112810000Y-105730000D03*
%TO.P,U9,4,V-_4*%
%TO.N,-10V*%
X112810000Y-103190000D03*
%TO.P,U9,5,BAL3_5*%
%TO.N,unconnected-(U9-BAL3-Pad5)*%
X105190000Y-103190000D03*
%TO.P,U9,6*%
%TO.N,Net-(JP2-B)*%
X105190000Y-105730000D03*
%TO.P,U9,7,V+_7*%
%TO.N,+10V*%
X105190000Y-108270000D03*
%TO.P,U9,8,BAL2_8*%
%TO.N,unconnected-(U9-BAL2-Pad8)*%
X105190000Y-110810000D03*
%TD*%
D12*
%TO.P,R24,1*%
%TO.N,Net-(U7-ADJ)*%
X117160000Y-79000000D03*
%TO.P,R24,2*%
%TO.N,GND*%
X107000000Y-79000000D03*
%TD*%
%TO.P,R13,1*%
%TO.N,+10V*%
X156000000Y-88840000D03*
%TO.P,R13,2*%
%TO.N,Net-(C7-Pad2)*%
X156000000Y-99000000D03*
%TD*%
%TO.P,R26,1*%
%TO.N,Net-(U8-ADJ)*%
X78000000Y-79000000D03*
%TO.P,R26,2*%
%TO.N,GND*%
X67840000Y-79000000D03*
%TD*%
D15*
%TO.P,TP5,TP*%
%TO.N,+2V5*%
X117003792Y-92475605D03*
%TD*%
D12*
%TO.P,C17,1*%
%TO.N,Net-(JP4-B)*%
X112920000Y-152550000D03*
%TO.P,C17,2*%
%TO.N,GND*%
X112920000Y-155050000D03*
%TD*%
D19*
%TO.P,J5,1*%
%TO.N,Net-(JP1-B)*%
X67190000Y-111190000D03*
D20*
%TO.P,J5,G1*%
%TO.N,GND*%
X64650000Y-108650000D03*
%TO.P,J5,G2*%
X69730000Y-108650000D03*
%TO.P,J5,G3*%
X64650000Y-113730000D03*
%TO.P,J5,G4*%
X69730000Y-113730000D03*
%TD*%
D15*
%TO.P,TP11,TP*%
%TO.N,/V_sw*%
X124500000Y-96000000D03*
%TD*%
D12*
%TO.P,C6,1*%
%TO.N,GND*%
X140500000Y-81000000D03*
%TO.P,C6,2*%
%TO.N,+10V*%
X143000000Y-81000000D03*
%TD*%
%TO.P,R6,1*%
%TO.N,Net-(U9--)*%
X118190000Y-106080000D03*
%TO.P,R6,2*%
%TO.N,GND*%
X118190000Y-95920000D03*
%TD*%
%TO.P,R4,1*%
%TO.N,Net-(Q5-D)*%
X113920000Y-132000000D03*
%TO.P,R4,2*%
%TO.N,Net-(Q6-D)*%
X124080000Y-132000000D03*
%TD*%
%TO.P,R23,1*%
%TO.N,Net-(U6-ADJ)*%
X119920000Y-160550000D03*
%TO.P,R23,2*%
%TO.N,Net-(JP4-B)*%
X109760000Y-160550000D03*
%TD*%
%TO.P,R10,1*%
%TO.N,+2V5*%
X90000000Y-93000000D03*
%TO.P,R10,2*%
%TO.N,/disch*%
X79840000Y-93000000D03*
%TD*%
D24*
%TO.P,R5,1*%
%TO.N,Net-(C1-Pad1)*%
X154820000Y-127000000D03*
D25*
%TO.P,R5,2*%
%TO.N,GND*%
X154820000Y-121920000D03*
%TD*%
D26*
%TO.P,U4,1,GND_1*%
%TO.N,-2V5*%
X73380000Y-105000000D03*
D12*
%TO.P,U4,2,TRIG_2*%
%TO.N,/thres*%
X75920000Y-105000000D03*
%TO.P,U4,3,OUT_3*%
%TO.N,/555_out*%
X78460000Y-105000000D03*
%TO.P,U4,4,~{RST}_4*%
%TO.N,+2V5*%
X81000000Y-105000000D03*
%TO.P,U4,5,CONT_5*%
%TO.N,Net-(U4-CONT)*%
X81000000Y-97380000D03*
%TO.P,U4,6,THRES_6*%
%TO.N,/thres*%
X78460000Y-97380000D03*
%TO.P,U4,7,DISCH_7*%
%TO.N,/disch*%
X75920000Y-97380000D03*
%TO.P,U4,8,VCC_8*%
%TO.N,+2V5*%
X73380000Y-97380000D03*
%TD*%
D16*
%TO.P,U6,1,ADJ_1*%
%TO.N,Net-(U6-ADJ)*%
X126000000Y-152550000D03*
D17*
%TO.P,U6,2,VI_2*%
%TO.N,-10V*%
X123460000Y-152550000D03*
%TO.P,U6,3,VO_3*%
%TO.N,Net-(JP4-B)*%
X120920000Y-152550000D03*
%TD*%
D12*
%TO.P,C2,1*%
%TO.N,Net-(JP2-B)*%
X108190000Y-96500000D03*
%TO.P,C2,2*%
%TO.N,Net-(U9--)*%
X110690000Y-96500000D03*
%TD*%
D25*
%TO.P,C1,1*%
%TO.N,Net-(C1-Pad1)*%
X146000000Y-127000000D03*
%TO.P,C1,2*%
%TO.N,GND*%
X146000000Y-119500000D03*
%TD*%
D16*
%TO.P,U7,1,ADJ_1*%
%TO.N,Net-(U7-ADJ)*%
X117920000Y-86500000D03*
D17*
%TO.P,U7,2,VO_2*%
%TO.N,Net-(JP5-B)*%
X120460000Y-86500000D03*
%TO.P,U7,3,VI_3*%
%TO.N,+10V*%
X123000000Y-86500000D03*
%TD*%
D15*
%TO.P,TP2,TP*%
%TO.N,Net-(JP2-A)*%
X100500000Y-114500000D03*
%TD*%
D12*
%TO.P,C9,1*%
%TO.N,GND*%
X146500000Y-147000000D03*
%TO.P,C9,2*%
%TO.N,Net-(C9-Pad2)*%
X149000000Y-147000000D03*
%TD*%
%TO.P,R1,1*%
%TO.N,Net-(Q11-G)*%
X94500000Y-124920000D03*
%TO.P,R1,2*%
%TO.N,-10V*%
X94500000Y-135080000D03*
%TD*%
D27*
%TO.P,U1,1,V+_1*%
%TO.N,+10V*%
X95810000Y-107190000D03*
D12*
%TO.P,U1,2,+_2*%
%TO.N,Net-(JP1-B)*%
X93270000Y-107190000D03*
%TO.P,U1,3,-_3*%
%TO.N,Net-(JP2-A)*%
X90730000Y-107190000D03*
%TO.P,U1,4,V-_4*%
%TO.N,-10V*%
X88190000Y-107190000D03*
%TO.P,U1,5,LATCH_5*%
%TO.N,+5V*%
X88190000Y-114810000D03*
%TO.P,U1,6,GND_6*%
%TO.N,GND*%
X90730000Y-114810000D03*
%TO.P,U1,7,Q_7*%
%TO.N,Net-(JP7-B)*%
X93270000Y-114810000D03*
%TO.P,U1,8,V_logic_8*%
%TO.N,+5V*%
X95810000Y-114810000D03*
%TD*%
%TO.P,C4,1*%
%TO.N,-2V5*%
X86000000Y-99250000D03*
%TO.P,C4,2*%
%TO.N,Net-(U4-CONT)*%
X86000000Y-96750000D03*
%TD*%
D16*
%TO.P,U8,1,ADJ_1*%
%TO.N,Net-(U8-ADJ)*%
X78920000Y-87000000D03*
D17*
%TO.P,U8,2,VO_2*%
%TO.N,+5V*%
X81460000Y-87000000D03*
%TO.P,U8,3,VI_3*%
%TO.N,+10V*%
X84000000Y-87000000D03*
%TD*%
D12*
%TO.P,C5,1*%
%TO.N,/thres*%
X75250000Y-110000000D03*
%TO.P,C5,2*%
%TO.N,-2V5*%
X77750000Y-110000000D03*
%TD*%
%TO.P,R7,1*%
%TO.N,Net-(C3-Pad2)*%
X130080000Y-114000000D03*
%TO.P,R7,2*%
%TO.N,Net-(U9-+)*%
X119920000Y-114000000D03*
%TD*%
%TO.P,C19,1*%
%TO.N,GND*%
X109135021Y-84058676D03*
%TO.P,C19,2*%
%TO.N,Net-(JP5-B)*%
X109135021Y-86558676D03*
%TD*%
%TO.P,R20,1*%
%TO.N,Net-(U5-ADJ)*%
X90460000Y-160500000D03*
%TO.P,R20,2*%
%TO.N,GND*%
X100620000Y-160500000D03*
%TD*%
D19*
%TO.P,J6,1*%
%TO.N,Net-(C1-Pad1)*%
X149000000Y-136000000D03*
D20*
%TO.P,J6,G1*%
%TO.N,GND*%
X146460000Y-133460000D03*
%TO.P,J6,G2*%
X151540000Y-133460000D03*
%TO.P,J6,G3*%
X146460000Y-138540000D03*
%TO.P,J6,G4*%
X151540000Y-138540000D03*
%TD*%
D12*
%TO.P,C21,1*%
%TO.N,GND*%
X71000000Y-85000000D03*
%TO.P,C21,2*%
%TO.N,+5V*%
X71000000Y-87500000D03*
%TD*%
D15*
%TO.P,TP10,TP*%
%TO.N,/555_out*%
X68000000Y-99000000D03*
%TD*%
D18*
%TO.P,J3,1,1_1*%
%TO.N,GND*%
X67156600Y-157630000D03*
%TD*%
D22*
%TO.P,U10,1,BAL1_1*%
%TO.N,unconnected-(U10-BAL1-Pad1)*%
X131000000Y-107810000D03*
D23*
%TO.P,U10,2,-_2*%
%TO.N,Net-(U10--)*%
X131000000Y-105270000D03*
%TO.P,U10,3,+_3*%
%TO.N,GND*%
X131000000Y-102730000D03*
%TO.P,U10,4,V-_4*%
%TO.N,-10V*%
X131000000Y-100190000D03*
%TO.P,U10,5,BAL3_5*%
%TO.N,unconnected-(U10-BAL3-Pad5)*%
X123380000Y-100190000D03*
%TO.P,U10,6*%
%TO.N,Net-(U9-+)*%
X123380000Y-102730000D03*
%TO.P,U10,7,V+_7*%
%TO.N,+10V*%
X123380000Y-105270000D03*
%TO.P,U10,8,BAL2_8*%
%TO.N,unconnected-(U10-BAL2-Pad8)*%
X123380000Y-107810000D03*
%TD*%
D12*
%TO.P,C16,1*%
%TO.N,-10V*%
X133920000Y-151500000D03*
%TO.P,C16,2*%
%TO.N,GND*%
X133920000Y-154000000D03*
%TD*%
D28*
%TO.N,+5V*%
X92000000Y-132500000D03*
D29*
X85500000Y-109500000D03*
X86500000Y-103000000D03*
D30*
%TO.N,+10V*%
X106500000Y-120000000D03*
D29*
%TO.N,-10V*%
X98500000Y-139500000D03*
D28*
%TO.N,-2V5*%
X85500000Y-146000000D03*
%TD*%
%TO.N,+5V*%
D31*
X90580000Y-126080000D02*
X90580000Y-123500000D01*
X94000000Y-131500000D02*
X94000000Y-129500000D01*
X94000000Y-129500000D02*
X90580000Y-126080000D01*
X93000000Y-132500000D02*
X94000000Y-131500000D01*
X92000000Y-132500000D02*
X93000000Y-132500000D01*
%TO.N,-2V5*%
D32*
X79000000Y-110000000D02*
X83500000Y-105500000D01*
X77750000Y-110000000D02*
X79000000Y-110000000D01*
X77750000Y-110000000D02*
X72500000Y-115250000D01*
X72500000Y-115500000D02*
X73000000Y-115000000D01*
X72500000Y-115250000D02*
X72500000Y-115500000D01*
%TO.N,+10V*%
D33*
X124000000Y-120710000D02*
X111820000Y-120710000D01*
%TO.N,+5V*%
X85500000Y-104000000D02*
X85500000Y-109500000D01*
X86500000Y-103000000D02*
X85500000Y-104000000D01*
%TO.N,-2V5*%
D32*
X86000000Y-100500000D02*
X86000000Y-99250000D01*
X83500000Y-103000000D02*
X86000000Y-100500000D01*
X83500000Y-105500000D02*
X83500000Y-103000000D01*
%TO.N,-10V*%
X89000000Y-106380000D02*
X88190000Y-107190000D01*
X89000000Y-99000000D02*
X89000000Y-106380000D01*
X102000000Y-95000000D02*
X93000000Y-95000000D01*
X112810000Y-103190000D02*
X110190000Y-103190000D01*
X110190000Y-103190000D02*
X102000000Y-95000000D01*
X93000000Y-95000000D02*
X89000000Y-99000000D01*
%TO.N,+10V*%
D33*
X124000000Y-117210000D02*
X124000000Y-120710000D01*
X126500000Y-114710000D02*
X124000000Y-117210000D01*
D31*
X107210000Y-120710000D02*
X111820000Y-120710000D01*
X106500000Y-120000000D02*
X107210000Y-120710000D01*
%TO.N,+2V5*%
D32*
X101000000Y-93000000D02*
X90000000Y-93000000D01*
X101524395Y-92475605D02*
X101000000Y-93000000D01*
X117003792Y-92475605D02*
X101524395Y-92475605D01*
X83387614Y-98673482D02*
X83387614Y-96612386D01*
X81000000Y-101061096D02*
X83387614Y-98673482D01*
X87000000Y-93000000D02*
X90000000Y-93000000D01*
X81000000Y-105000000D02*
X81000000Y-101061096D01*
X83387614Y-96612386D02*
X87000000Y-93000000D01*
%TO.N,/thres*%
X66840000Y-95000000D02*
X64840000Y-93000000D01*
X76080000Y-95000000D02*
X66840000Y-95000000D01*
X78460000Y-97380000D02*
X76080000Y-95000000D01*
%TO.N,+10V*%
D34*
X98770000Y-108270000D02*
X105190000Y-108270000D01*
X97690000Y-107190000D02*
X98770000Y-108270000D01*
%TO.N,+5V*%
D32*
X90580000Y-121040000D02*
X90580000Y-123500000D01*
X95810000Y-115810000D02*
X90580000Y-121040000D01*
X95810000Y-114810000D02*
X95810000Y-115810000D01*
%TO.N,-10V*%
D33*
X99500000Y-140500000D02*
X98500000Y-139500000D01*
X99500000Y-142290000D02*
X99500000Y-140500000D01*
X99500000Y-142290000D02*
X98180000Y-142290000D01*
%TO.N,+10V*%
D34*
X97690000Y-107190000D02*
X95810000Y-107190000D01*
%TO.N,-10V*%
X81790000Y-142290000D02*
X90000000Y-142290000D01*
X77500000Y-138000000D02*
X81790000Y-142290000D01*
X88190000Y-110810000D02*
X77500000Y-121500000D01*
X77500000Y-121500000D02*
X77500000Y-138000000D01*
X88190000Y-107190000D02*
X88190000Y-110810000D01*
%TO.N,-2V5*%
D32*
X73000000Y-105380000D02*
X73380000Y-105000000D01*
X67000000Y-121000000D02*
X72500000Y-115500000D01*
X67000000Y-136500000D02*
X67000000Y-121000000D01*
X73000000Y-115000000D02*
X73000000Y-105380000D01*
X85500000Y-146000000D02*
X76500000Y-146000000D01*
X76500000Y-146000000D02*
X67000000Y-136500000D01*
%TO.N,Net-(U6-ADJ)*%
D34*
X119970000Y-160500000D02*
X119920000Y-160550000D01*
X124840000Y-160500000D02*
X119970000Y-160500000D01*
%TO.N,/thres*%
D32*
X75250000Y-105670000D02*
X75920000Y-105000000D01*
X75250000Y-110000000D02*
X75250000Y-105670000D01*
X78460000Y-101040000D02*
X78460000Y-97380000D01*
X75920000Y-103580000D02*
X78460000Y-101040000D01*
X75920000Y-105000000D02*
X75920000Y-103580000D01*
%TO.N,-10V*%
X88310000Y-107190000D02*
X88190000Y-107190000D01*
%TO.N,+10V*%
D33*
X127622580Y-105877420D02*
X127622580Y-90000000D01*
X126500000Y-107000000D02*
X127622580Y-105877420D01*
X124770000Y-105270000D02*
X126500000Y-107000000D01*
X126500000Y-107000000D02*
X126500000Y-114710000D01*
%TO.N,-10V*%
X137190000Y-100190000D02*
X131000000Y-100190000D01*
X140000000Y-103000000D02*
X137190000Y-100190000D01*
X137000000Y-119000000D02*
X140000000Y-116000000D01*
X137000000Y-146000000D02*
X137000000Y-119000000D01*
X140000000Y-116000000D02*
X140000000Y-103000000D01*
X137000000Y-146000000D02*
X139000000Y-148000000D01*
%TO.N,+10V*%
X123380000Y-105270000D02*
X124770000Y-105270000D01*
%TO.N,+5V*%
D32*
X94000000Y-113000000D02*
X95810000Y-114810000D01*
X90000000Y-113000000D02*
X94000000Y-113000000D01*
X88190000Y-114810000D02*
X90000000Y-113000000D01*
%TO.N,-10V*%
D34*
X94710000Y-142290000D02*
X89540000Y-147460000D01*
%TO.N,+10V*%
X106270000Y-108270000D02*
X105190000Y-108270000D01*
X111820000Y-113820000D02*
X106270000Y-108270000D01*
X111820000Y-120710000D02*
X111820000Y-113820000D01*
%TO.N,Net-(U5-ADJ)*%
X86700000Y-160500000D02*
X90460000Y-160500000D01*
X92080000Y-158880000D02*
X90460000Y-160500000D01*
X92080000Y-152050000D02*
X92080000Y-158880000D01*
%TO.N,-10V*%
D33*
X133290000Y-142290000D02*
X137000000Y-146000000D01*
D34*
X156000000Y-154000000D02*
X153000000Y-157000000D01*
D33*
X148000000Y-157000000D02*
X153000000Y-157000000D01*
D34*
X89540000Y-147460000D02*
X89540000Y-152050000D01*
X139000000Y-148000000D02*
X125605000Y-148000000D01*
D33*
X142500000Y-151500000D02*
X148000000Y-157000000D01*
X130180000Y-142290000D02*
X133290000Y-142290000D01*
D34*
X125605000Y-148000000D02*
X123460000Y-150145000D01*
X156000000Y-149080000D02*
X156000000Y-154000000D01*
X144000000Y-157000000D02*
X148000000Y-157000000D01*
D33*
X130180000Y-142290000D02*
X99500000Y-142290000D01*
X139000000Y-148000000D02*
X142500000Y-151500000D01*
D34*
X123460000Y-150145000D02*
X123460000Y-152550000D01*
D33*
X96000000Y-142290000D02*
X90000000Y-142290000D01*
X98180000Y-142290000D02*
X96000000Y-142290000D01*
D34*
X96000000Y-142290000D02*
X94710000Y-142290000D01*
%TO.N,Net-(JP3-B)*%
X76540000Y-156000000D02*
X78540000Y-154000000D01*
X76540000Y-160500000D02*
X76540000Y-156000000D01*
X85050000Y-154000000D02*
X87000000Y-152050000D01*
X78540000Y-154000000D02*
X85050000Y-154000000D01*
%TO.N,+10V*%
X143000000Y-81000000D02*
X148000000Y-81000000D01*
X152000000Y-81000000D02*
X153000000Y-82000000D01*
D33*
X142992628Y-86007372D02*
X148000000Y-81000000D01*
D34*
X148000000Y-81000000D02*
X152000000Y-81000000D01*
X123000000Y-86500000D02*
X131122580Y-86500000D01*
D33*
X131615208Y-86007372D02*
X142992628Y-86007372D01*
D34*
X131122580Y-86500000D02*
X131615208Y-86007372D01*
D33*
X84000000Y-87000000D02*
X87000000Y-90000000D01*
D34*
X96000000Y-90000000D02*
X93000000Y-87000000D01*
D33*
X131615208Y-86007372D02*
X127622580Y-90000000D01*
D34*
X156000000Y-85000000D02*
X153000000Y-82000000D01*
X156000000Y-88840000D02*
X156000000Y-85000000D01*
D33*
X127622580Y-90000000D02*
X96000000Y-90000000D01*
X87000000Y-90000000D02*
X96000000Y-90000000D01*
%TO.N,Net-(JP5-B)*%
D34*
X120460000Y-85540000D02*
X123000000Y-83000000D01*
X127160000Y-83000000D02*
X131160000Y-79000000D01*
X115000000Y-83000000D02*
X123000000Y-83000000D01*
X120460000Y-86500000D02*
X120460000Y-85540000D01*
X109135021Y-86558676D02*
X111441324Y-86558676D01*
X111441324Y-86558676D02*
X115000000Y-83000000D01*
X123000000Y-83000000D02*
X127160000Y-83000000D01*
%TO.N,+5V*%
X71000000Y-87500000D02*
X72500000Y-87500000D01*
X72500000Y-87500000D02*
X75000000Y-90000000D01*
D33*
X86960000Y-79000000D02*
X93080000Y-79000000D01*
D34*
X81460000Y-89500000D02*
X81460000Y-87000000D01*
D33*
X81460000Y-84500000D02*
X86960000Y-79000000D01*
D34*
X75000000Y-90000000D02*
X80960000Y-90000000D01*
D33*
X81460000Y-87000000D02*
X81460000Y-84500000D01*
D34*
X80960000Y-90000000D02*
X81460000Y-89500000D01*
%TO.N,Net-(U8-ADJ)*%
X78920000Y-87000000D02*
X78920000Y-83000000D01*
X82920000Y-79000000D02*
X78920000Y-83000000D01*
X78920000Y-83000000D02*
X78920000Y-79920000D01*
X78920000Y-79920000D02*
X78000000Y-79000000D01*
%TO.N,Net-(C7-Pad2)*%
X154500000Y-99000000D02*
X148500000Y-93000000D01*
X156000000Y-99000000D02*
X154500000Y-99000000D01*
%TO.N,Net-(C9-Pad2)*%
X152000000Y-147000000D02*
X156000000Y-143000000D01*
X156000000Y-143000000D02*
X156000000Y-138920000D01*
X149000000Y-147000000D02*
X152000000Y-147000000D01*
%TO.N,Net-(U6-ADJ)*%
X126000000Y-152550000D02*
X126000000Y-159340000D01*
X126000000Y-159340000D02*
X124840000Y-160500000D01*
%TO.N,Net-(JP4-B)*%
X112920000Y-160550000D02*
X120920000Y-152550000D01*
X109760000Y-160550000D02*
X112920000Y-160550000D01*
X120920000Y-152550000D02*
X112920000Y-152550000D01*
%TD*%
M02*
